<mxfile host="Electron" agent="Mozilla/5.0 (Macintosh; Intel Mac OS X 10_15_7) AppleWebKit/537.36 (KHTML, like Gecko) draw.io/26.0.4 Chrome/128.0.6613.186 Electron/32.2.5 Safari/537.36" version="26.0.4">
  <diagram id="6OdolTEmYTzxflPTEHso" name="Page-1">
    <mxGraphModel dx="2239" dy="778" grid="1" gridSize="10" guides="1" tooltips="1" connect="1" arrows="1" fold="1" page="1" pageScale="1" pageWidth="827" pageHeight="1169" math="0" shadow="0">
      <root>
        <mxCell id="0" />
        <mxCell id="1" parent="0" />
        <mxCell id="h_gXAqal29AzcA71INI1-75" value="" style="edgeStyle=orthogonalEdgeStyle;rounded=0;orthogonalLoop=1;jettySize=auto;html=1;entryX=0.5;entryY=0;entryDx=0;entryDy=0;" parent="1" source="h_gXAqal29AzcA71INI1-76" target="h_gXAqal29AzcA71INI1-86" edge="1">
          <mxGeometry relative="1" as="geometry">
            <mxPoint x="-240" y="290" as="targetPoint" />
          </mxGeometry>
        </mxCell>
        <mxCell id="h_gXAqal29AzcA71INI1-76" value="设置 start&lt;div&gt;为 (0, 0)&lt;/div&gt;" style="rounded=0;whiteSpace=wrap;html=1;" parent="1" vertex="1">
          <mxGeometry x="-275" y="100" width="70" height="30" as="geometry" />
        </mxCell>
        <mxCell id="h_gXAqal29AzcA71INI1-77" value="" style="edgeStyle=orthogonalEdgeStyle;rounded=0;orthogonalLoop=1;jettySize=auto;html=1;entryX=0.5;entryY=0;entryDx=0;entryDy=0;exitX=0.5;exitY=1;exitDx=0;exitDy=0;" parent="1" source="h_gXAqal29AzcA71INI1-83" target="h_gXAqal29AzcA71INI1-82" edge="1">
          <mxGeometry relative="1" as="geometry">
            <mxPoint x="-241.03" y="610" as="targetPoint" />
            <mxPoint x="-241.03" y="580" as="sourcePoint" />
          </mxGeometry>
        </mxCell>
        <mxCell id="h_gXAqal29AzcA71INI1-84" value="是" style="edgeLabel;html=1;align=center;verticalAlign=middle;resizable=0;points=[];" parent="h_gXAqal29AzcA71INI1-77" vertex="1" connectable="0">
          <mxGeometry x="-0.1692" y="-1" relative="1" as="geometry">
            <mxPoint as="offset" />
          </mxGeometry>
        </mxCell>
        <mxCell id="h_gXAqal29AzcA71INI1-80" style="edgeStyle=orthogonalEdgeStyle;rounded=0;orthogonalLoop=1;jettySize=auto;html=1;entryX=0.5;entryY=0;entryDx=0;entryDy=0;" parent="1" source="h_gXAqal29AzcA71INI1-81" target="h_gXAqal29AzcA71INI1-76" edge="1">
          <mxGeometry relative="1" as="geometry" />
        </mxCell>
        <mxCell id="h_gXAqal29AzcA71INI1-81" value="读取图片" style="rounded=0;whiteSpace=wrap;html=1;" parent="1" vertex="1">
          <mxGeometry x="-275" y="50" width="70" height="30" as="geometry" />
        </mxCell>
        <mxCell id="h_gXAqal29AzcA71INI1-96" style="edgeStyle=orthogonalEdgeStyle;rounded=0;orthogonalLoop=1;jettySize=auto;html=1;entryX=0;entryY=0.5;entryDx=0;entryDy=0;" parent="1" source="h_gXAqal29AzcA71INI1-82" target="h_gXAqal29AzcA71INI1-86" edge="1">
          <mxGeometry relative="1" as="geometry">
            <Array as="points">
              <mxPoint x="-360" y="666" />
              <mxPoint x="-360" y="200" />
            </Array>
          </mxGeometry>
        </mxCell>
        <mxCell id="h_gXAqal29AzcA71INI1-82" value="&lt;div&gt;更新 start&lt;/div&gt;先增加 x&lt;div&gt;后增加 y&lt;/div&gt;" style="rounded=0;whiteSpace=wrap;html=1;" parent="1" vertex="1">
          <mxGeometry x="-330" y="640.5" width="70" height="50" as="geometry" />
        </mxCell>
        <mxCell id="h_gXAqal29AzcA71INI1-98" value="" style="edgeStyle=orthogonalEdgeStyle;rounded=0;orthogonalLoop=1;jettySize=auto;html=1;entryX=0;entryY=0.5;entryDx=0;entryDy=0;" parent="1" source="h_gXAqal29AzcA71INI1-83" target="h_gXAqal29AzcA71INI1-108" edge="1">
          <mxGeometry relative="1" as="geometry" />
        </mxCell>
        <mxCell id="h_gXAqal29AzcA71INI1-107" value="否" style="edgeLabel;html=1;align=center;verticalAlign=middle;resizable=0;points=[];" parent="h_gXAqal29AzcA71INI1-98" vertex="1" connectable="0">
          <mxGeometry x="-0.181" relative="1" as="geometry">
            <mxPoint as="offset" />
          </mxGeometry>
        </mxCell>
        <mxCell id="h_gXAqal29AzcA71INI1-83" value="start&lt;div&gt;是否为&lt;div&gt;透明像素&lt;/div&gt;&lt;/div&gt;" style="rhombus;whiteSpace=wrap;html=1;" parent="1" vertex="1">
          <mxGeometry x="-280" y="444" width="80" height="80" as="geometry" />
        </mxCell>
        <mxCell id="h_gXAqal29AzcA71INI1-87" style="edgeStyle=orthogonalEdgeStyle;rounded=0;orthogonalLoop=1;jettySize=auto;html=1;entryX=0.5;entryY=0;entryDx=0;entryDy=0;" parent="1" source="h_gXAqal29AzcA71INI1-86" target="h_gXAqal29AzcA71INI1-172" edge="1">
          <mxGeometry relative="1" as="geometry" />
        </mxCell>
        <mxCell id="h_gXAqal29AzcA71INI1-88" value="否" style="edgeLabel;html=1;align=center;verticalAlign=middle;resizable=0;points=[];" parent="h_gXAqal29AzcA71INI1-87" vertex="1" connectable="0">
          <mxGeometry x="-0.25" relative="1" as="geometry">
            <mxPoint as="offset" />
          </mxGeometry>
        </mxCell>
        <mxCell id="h_gXAqal29AzcA71INI1-93" value="" style="edgeStyle=orthogonalEdgeStyle;rounded=0;orthogonalLoop=1;jettySize=auto;html=1;" parent="1" source="h_gXAqal29AzcA71INI1-86" target="h_gXAqal29AzcA71INI1-91" edge="1">
          <mxGeometry relative="1" as="geometry" />
        </mxCell>
        <mxCell id="h_gXAqal29AzcA71INI1-94" value="是" style="edgeLabel;html=1;align=center;verticalAlign=middle;resizable=0;points=[];" parent="h_gXAqal29AzcA71INI1-93" vertex="1" connectable="0">
          <mxGeometry x="-0.4174" relative="1" as="geometry">
            <mxPoint x="3" as="offset" />
          </mxGeometry>
        </mxCell>
        <mxCell id="h_gXAqal29AzcA71INI1-86" value="start&lt;div&gt;是否在&lt;div&gt;不可访问&lt;/div&gt;&lt;div&gt;区域&lt;/div&gt;&lt;/div&gt;" style="rhombus;whiteSpace=wrap;html=1;" parent="1" vertex="1">
          <mxGeometry x="-280" y="160" width="80" height="80" as="geometry" />
        </mxCell>
        <mxCell id="h_gXAqal29AzcA71INI1-170" style="edgeStyle=orthogonalEdgeStyle;rounded=0;orthogonalLoop=1;jettySize=auto;html=1;entryX=1;entryY=0.5;entryDx=0;entryDy=0;" parent="1" source="h_gXAqal29AzcA71INI1-91" target="h_gXAqal29AzcA71INI1-86" edge="1">
          <mxGeometry relative="1" as="geometry">
            <Array as="points">
              <mxPoint x="3" y="250" />
              <mxPoint x="-200" y="250" />
            </Array>
          </mxGeometry>
        </mxCell>
        <mxCell id="h_gXAqal29AzcA71INI1-91" value="&lt;div&gt;更新 start&lt;/div&gt;&lt;div&gt;跳过不可&lt;/div&gt;&lt;div&gt;访问&lt;span style=&quot;background-color: transparent; color: light-dark(rgb(0, 0, 0), rgb(255, 255, 255));&quot;&gt;区域&lt;/span&gt;&lt;/div&gt;" style="rounded=0;whiteSpace=wrap;html=1;" parent="1" vertex="1">
          <mxGeometry x="-32" y="174.5" width="71" height="50" as="geometry" />
        </mxCell>
        <mxCell id="h_gXAqal29AzcA71INI1-103" value="" style="edgeStyle=orthogonalEdgeStyle;rounded=0;orthogonalLoop=1;jettySize=auto;html=1;" parent="1" source="h_gXAqal29AzcA71INI1-97" target="h_gXAqal29AzcA71INI1-100" edge="1">
          <mxGeometry relative="1" as="geometry" />
        </mxCell>
        <mxCell id="h_gXAqal29AzcA71INI1-97" value="执行边缘检测&lt;div&gt;切分出单独sprite&lt;/div&gt;" style="rounded=0;whiteSpace=wrap;html=1;fillColor=#ffe6cc;strokeColor=#d79b00;" parent="1" vertex="1">
          <mxGeometry x="29" y="269.5" width="100" height="50" as="geometry" />
        </mxCell>
        <mxCell id="h_gXAqal29AzcA71INI1-105" value="" style="edgeStyle=orthogonalEdgeStyle;rounded=0;orthogonalLoop=1;jettySize=auto;html=1;" parent="1" source="h_gXAqal29AzcA71INI1-100" target="h_gXAqal29AzcA71INI1-104" edge="1">
          <mxGeometry relative="1" as="geometry" />
        </mxCell>
        <mxCell id="h_gXAqal29AzcA71INI1-100" value="将该区域添加为&lt;div&gt;不可访问区域&lt;/div&gt;" style="rounded=0;whiteSpace=wrap;html=1;" parent="1" vertex="1">
          <mxGeometry x="70" y="175" width="100" height="50" as="geometry" />
        </mxCell>
        <mxCell id="h_gXAqal29AzcA71INI1-106" style="edgeStyle=orthogonalEdgeStyle;rounded=0;orthogonalLoop=1;jettySize=auto;html=1;entryX=1;entryY=0.5;entryDx=0;entryDy=0;exitX=0;exitY=0.5;exitDx=0;exitDy=0;" parent="1" source="h_gXAqal29AzcA71INI1-104" target="h_gXAqal29AzcA71INI1-86" edge="1">
          <mxGeometry relative="1" as="geometry">
            <Array as="points">
              <mxPoint x="40" y="105" />
              <mxPoint x="40" y="140" />
              <mxPoint x="-200" y="140" />
            </Array>
          </mxGeometry>
        </mxCell>
        <mxCell id="h_gXAqal29AzcA71INI1-104" value="&lt;div&gt;更新 start&lt;/div&gt;&lt;div&gt;跳过&lt;/div&gt;&lt;div&gt;该&lt;span style=&quot;background-color: transparent; color: light-dark(rgb(0, 0, 0), rgb(255, 255, 255));&quot;&gt;区域&lt;/span&gt;&lt;/div&gt;" style="rounded=0;whiteSpace=wrap;html=1;" parent="1" vertex="1">
          <mxGeometry x="84.5" y="80" width="71" height="50" as="geometry" />
        </mxCell>
        <mxCell id="h_gXAqal29AzcA71INI1-109" value="" style="edgeStyle=orthogonalEdgeStyle;rounded=0;orthogonalLoop=1;jettySize=auto;html=1;" parent="1" source="h_gXAqal29AzcA71INI1-108" target="h_gXAqal29AzcA71INI1-97" edge="1">
          <mxGeometry relative="1" as="geometry" />
        </mxCell>
        <mxCell id="h_gXAqal29AzcA71INI1-110" value="是" style="edgeLabel;html=1;align=center;verticalAlign=middle;resizable=0;points=[];" parent="h_gXAqal29AzcA71INI1-109" vertex="1" connectable="0">
          <mxGeometry x="-0.2161" relative="1" as="geometry">
            <mxPoint as="offset" />
          </mxGeometry>
        </mxCell>
        <mxCell id="h_gXAqal29AzcA71INI1-112" value="" style="edgeStyle=orthogonalEdgeStyle;rounded=0;orthogonalLoop=1;jettySize=auto;html=1;" parent="1" source="h_gXAqal29AzcA71INI1-108" target="h_gXAqal29AzcA71INI1-111" edge="1">
          <mxGeometry relative="1" as="geometry" />
        </mxCell>
        <mxCell id="h_gXAqal29AzcA71INI1-108" value="start 是否为&lt;div&gt;边缘像素&lt;/div&gt;" style="rhombus;whiteSpace=wrap;html=1;" parent="1" vertex="1">
          <mxGeometry x="39" y="410" width="80" height="80" as="geometry" />
        </mxCell>
        <mxCell id="h_gXAqal29AzcA71INI1-171" style="edgeStyle=orthogonalEdgeStyle;rounded=0;orthogonalLoop=1;jettySize=auto;html=1;entryX=0.75;entryY=1;entryDx=0;entryDy=0;" parent="1" source="h_gXAqal29AzcA71INI1-111" target="h_gXAqal29AzcA71INI1-97" edge="1">
          <mxGeometry relative="1" as="geometry">
            <Array as="points">
              <mxPoint x="213" y="380" />
              <mxPoint x="104" y="380" />
            </Array>
          </mxGeometry>
        </mxCell>
        <mxCell id="h_gXAqal29AzcA71INI1-111" value="&lt;div&gt;任意方向&lt;/div&gt;&lt;div&gt;&lt;span style=&quot;background-color: transparent; color: light-dark(rgb(0, 0, 0), rgb(255, 255, 255));&quot;&gt;更新 start 找到边缘像素&lt;/span&gt;&lt;/div&gt;" style="rounded=0;whiteSpace=wrap;html=1;" parent="1" vertex="1">
          <mxGeometry x="177.5" y="404.5" width="70" height="50" as="geometry" />
        </mxCell>
        <mxCell id="h_gXAqal29AzcA71INI1-173" value="" style="edgeStyle=orthogonalEdgeStyle;rounded=0;orthogonalLoop=1;jettySize=auto;html=1;" parent="1" source="h_gXAqal29AzcA71INI1-172" target="h_gXAqal29AzcA71INI1-83" edge="1">
          <mxGeometry relative="1" as="geometry" />
        </mxCell>
        <mxCell id="h_gXAqal29AzcA71INI1-181" value="否" style="edgeLabel;html=1;align=center;verticalAlign=middle;resizable=0;points=[];" parent="h_gXAqal29AzcA71INI1-173" vertex="1" connectable="0">
          <mxGeometry x="-0.8125" y="-2" relative="1" as="geometry">
            <mxPoint x="2" y="3" as="offset" />
          </mxGeometry>
        </mxCell>
        <mxCell id="h_gXAqal29AzcA71INI1-175" value="" style="edgeStyle=orthogonalEdgeStyle;rounded=0;orthogonalLoop=1;jettySize=auto;html=1;" parent="1" source="h_gXAqal29AzcA71INI1-172" target="h_gXAqal29AzcA71INI1-174" edge="1">
          <mxGeometry relative="1" as="geometry" />
        </mxCell>
        <mxCell id="h_gXAqal29AzcA71INI1-178" value="是" style="edgeLabel;html=1;align=center;verticalAlign=middle;resizable=0;points=[];" parent="h_gXAqal29AzcA71INI1-175" vertex="1" connectable="0">
          <mxGeometry x="-0.4393" y="2" relative="1" as="geometry">
            <mxPoint x="2" y="2" as="offset" />
          </mxGeometry>
        </mxCell>
        <mxCell id="h_gXAqal29AzcA71INI1-172" value="start.y 是否&lt;div&gt;大于被判断的&lt;/div&gt;&lt;div&gt;不可访问区域&lt;/div&gt;&lt;div&gt;右下 y&lt;/div&gt;" style="rhombus;whiteSpace=wrap;html=1;" parent="1" vertex="1">
          <mxGeometry x="-303" y="290" width="126" height="90" as="geometry" />
        </mxCell>
        <mxCell id="h_gXAqal29AzcA71INI1-180" style="edgeStyle=orthogonalEdgeStyle;rounded=0;orthogonalLoop=1;jettySize=auto;html=1;" parent="1" source="h_gXAqal29AzcA71INI1-174" edge="1">
          <mxGeometry relative="1" as="geometry">
            <mxPoint x="-240" y="410" as="targetPoint" />
            <Array as="points">
              <mxPoint x="-105" y="400" />
              <mxPoint x="-239" y="400" />
              <mxPoint x="-239" y="410" />
            </Array>
          </mxGeometry>
        </mxCell>
        <mxCell id="h_gXAqal29AzcA71INI1-174" value="删除该不可访问区域" style="rounded=0;whiteSpace=wrap;html=1;" parent="1" vertex="1">
          <mxGeometry x="-140" y="310" width="71" height="50" as="geometry" />
        </mxCell>
        <mxCell id="h_gXAqal29AzcA71INI1-185" value="" style="group;fillColor=#ffe6cc;strokeColor=#d79b00;" parent="1" vertex="1" connectable="0">
          <mxGeometry x="-580" y="760" width="544.22" height="754" as="geometry" />
        </mxCell>
        <mxCell id="h_gXAqal29AzcA71INI1-117" value="&lt;div&gt;边缘检测&lt;span style=&quot;background-color: transparent; color: light-dark(rgb(0, 0, 0), rgb(255, 255, 255));&quot;&gt;切分 sprite 算法&lt;/span&gt;&lt;/div&gt;" style="text;html=1;align=center;verticalAlign=middle;whiteSpace=wrap;rounded=0;" parent="h_gXAqal29AzcA71INI1-185" vertex="1">
          <mxGeometry y="4" width="160" height="30" as="geometry" />
        </mxCell>
        <mxCell id="h_gXAqal29AzcA71INI1-121" value="" style="edgeStyle=orthogonalEdgeStyle;rounded=0;orthogonalLoop=1;jettySize=auto;html=1;entryX=0.5;entryY=0;entryDx=0;entryDy=0;" parent="h_gXAqal29AzcA71INI1-185" source="h_gXAqal29AzcA71INI1-118" target="h_gXAqal29AzcA71INI1-122" edge="1">
          <mxGeometry relative="1" as="geometry" />
        </mxCell>
        <mxCell id="h_gXAqal29AzcA71INI1-118" value="&lt;div&gt;边缘像素&lt;/div&gt;" style="rounded=0;whiteSpace=wrap;html=1;" parent="h_gXAqal29AzcA71INI1-185" vertex="1">
          <mxGeometry x="119.97000000000003" y="99.25" width="70" height="30" as="geometry" />
        </mxCell>
        <mxCell id="h_gXAqal29AzcA71INI1-128" value="" style="edgeStyle=orthogonalEdgeStyle;rounded=0;orthogonalLoop=1;jettySize=auto;html=1;" parent="h_gXAqal29AzcA71INI1-185" source="h_gXAqal29AzcA71INI1-120" target="h_gXAqal29AzcA71INI1-127" edge="1">
          <mxGeometry relative="1" as="geometry" />
        </mxCell>
        <mxCell id="h_gXAqal29AzcA71INI1-129" value="否" style="edgeLabel;html=1;align=center;verticalAlign=middle;resizable=0;points=[];" parent="h_gXAqal29AzcA71INI1-128" vertex="1" connectable="0">
          <mxGeometry x="-0.1905" relative="1" as="geometry">
            <mxPoint as="offset" />
          </mxGeometry>
        </mxCell>
        <mxCell id="h_gXAqal29AzcA71INI1-132" value="" style="edgeStyle=orthogonalEdgeStyle;rounded=0;orthogonalLoop=1;jettySize=auto;html=1;entryX=0;entryY=0.5;entryDx=0;entryDy=0;" parent="h_gXAqal29AzcA71INI1-185" source="h_gXAqal29AzcA71INI1-120" target="h_gXAqal29AzcA71INI1-134" edge="1">
          <mxGeometry relative="1" as="geometry" />
        </mxCell>
        <mxCell id="h_gXAqal29AzcA71INI1-120" value="周围 8&amp;nbsp;&lt;span style=&quot;background-color: transparent; color: light-dark(rgb(0, 0, 0), rgb(255, 255, 255));&quot;&gt;像&lt;/span&gt;&lt;div&gt;&lt;span style=&quot;background-color: transparent; color: light-dark(rgb(0, 0, 0), rgb(255, 255, 255));&quot;&gt;素&lt;/span&gt;&lt;span style=&quot;background-color: transparent; color: light-dark(rgb(0, 0, 0), rgb(255, 255, 255));&quot;&gt;内是否存在&lt;/span&gt;&lt;/div&gt;&lt;div&gt;&lt;span style=&quot;background-color: transparent; color: light-dark(rgb(0, 0, 0), rgb(255, 255, 255));&quot;&gt;边缘&lt;/span&gt;&lt;span style=&quot;background-color: transparent; color: light-dark(rgb(0, 0, 0), rgb(255, 255, 255));&quot;&gt;像素&lt;/span&gt;&lt;/div&gt;" style="rhombus;whiteSpace=wrap;html=1;" parent="h_gXAqal29AzcA71INI1-185" vertex="1">
          <mxGeometry x="96.97000000000003" y="408.25" width="115" height="70" as="geometry" />
        </mxCell>
        <mxCell id="h_gXAqal29AzcA71INI1-125" value="" style="edgeStyle=orthogonalEdgeStyle;rounded=0;orthogonalLoop=1;jettySize=auto;html=1;" parent="h_gXAqal29AzcA71INI1-185" source="h_gXAqal29AzcA71INI1-122" target="h_gXAqal29AzcA71INI1-124" edge="1">
          <mxGeometry relative="1" as="geometry" />
        </mxCell>
        <mxCell id="h_gXAqal29AzcA71INI1-122" value="&lt;div&gt;加入边缘&lt;/div&gt;&lt;div&gt;像素队列&lt;/div&gt;" style="rounded=0;whiteSpace=wrap;html=1;" parent="h_gXAqal29AzcA71INI1-185" vertex="1">
          <mxGeometry x="119.97000000000003" y="147.75" width="70" height="30" as="geometry" />
        </mxCell>
        <mxCell id="h_gXAqal29AzcA71INI1-126" value="" style="edgeStyle=orthogonalEdgeStyle;rounded=0;orthogonalLoop=1;jettySize=auto;html=1;entryX=0.5;entryY=0;entryDx=0;entryDy=0;" parent="h_gXAqal29AzcA71INI1-185" source="h_gXAqal29AzcA71INI1-124" target="h_gXAqal29AzcA71INI1-140" edge="1">
          <mxGeometry relative="1" as="geometry" />
        </mxCell>
        <mxCell id="h_gXAqal29AzcA71INI1-124" value="&lt;div&gt;加入已访问像素 MAP&lt;/div&gt;" style="rounded=0;whiteSpace=wrap;html=1;" parent="h_gXAqal29AzcA71INI1-185" vertex="1">
          <mxGeometry x="119.97000000000003" y="198.25" width="70" height="30" as="geometry" />
        </mxCell>
        <mxCell id="h_gXAqal29AzcA71INI1-127" value="&lt;div&gt;返回左上右下坐标&lt;/div&gt;" style="rounded=0;whiteSpace=wrap;html=1;" parent="h_gXAqal29AzcA71INI1-185" vertex="1">
          <mxGeometry x="119.47000000000003" y="518.25" width="70" height="30" as="geometry" />
        </mxCell>
        <mxCell id="h_gXAqal29AzcA71INI1-153" style="edgeStyle=orthogonalEdgeStyle;rounded=0;orthogonalLoop=1;jettySize=auto;html=1;entryX=0.5;entryY=1;entryDx=0;entryDy=0;" parent="h_gXAqal29AzcA71INI1-185" source="h_gXAqal29AzcA71INI1-131" target="h_gXAqal29AzcA71INI1-134" edge="1">
          <mxGeometry relative="1" as="geometry" />
        </mxCell>
        <mxCell id="h_gXAqal29AzcA71INI1-154" value="是" style="edgeLabel;html=1;align=center;verticalAlign=middle;resizable=0;points=[];" parent="h_gXAqal29AzcA71INI1-153" vertex="1" connectable="0">
          <mxGeometry x="-0.5482" y="-1" relative="1" as="geometry">
            <mxPoint as="offset" />
          </mxGeometry>
        </mxCell>
        <mxCell id="h_gXAqal29AzcA71INI1-158" value="" style="edgeStyle=orthogonalEdgeStyle;rounded=0;orthogonalLoop=1;jettySize=auto;html=1;" parent="h_gXAqal29AzcA71INI1-185" source="h_gXAqal29AzcA71INI1-131" target="h_gXAqal29AzcA71INI1-157" edge="1">
          <mxGeometry relative="1" as="geometry" />
        </mxCell>
        <mxCell id="h_gXAqal29AzcA71INI1-131" value="该坐标是否&lt;div&gt;已被访问&lt;br&gt;&lt;/div&gt;" style="rhombus;whiteSpace=wrap;html=1;" parent="h_gXAqal29AzcA71INI1-185" vertex="1">
          <mxGeometry x="341.97" y="518.25" width="115" height="70" as="geometry" />
        </mxCell>
        <mxCell id="h_gXAqal29AzcA71INI1-137" value="" style="edgeStyle=orthogonalEdgeStyle;rounded=0;orthogonalLoop=1;jettySize=auto;html=1;" parent="h_gXAqal29AzcA71INI1-185" source="h_gXAqal29AzcA71INI1-134" target="h_gXAqal29AzcA71INI1-136" edge="1">
          <mxGeometry relative="1" as="geometry" />
        </mxCell>
        <mxCell id="h_gXAqal29AzcA71INI1-134" value="&lt;div&gt;遍历&lt;/div&gt;&lt;div&gt;边缘&lt;span style=&quot;background-color: transparent; color: light-dark(rgb(0, 0, 0), rgb(255, 255, 255));&quot;&gt;像素&lt;/span&gt;&lt;/div&gt;" style="rounded=0;whiteSpace=wrap;html=1;" parent="h_gXAqal29AzcA71INI1-185" vertex="1">
          <mxGeometry x="249.47000000000003" y="428.25" width="70" height="30" as="geometry" />
        </mxCell>
        <mxCell id="h_gXAqal29AzcA71INI1-161" style="edgeStyle=orthogonalEdgeStyle;rounded=0;orthogonalLoop=1;jettySize=auto;html=1;entryX=0.5;entryY=0;entryDx=0;entryDy=0;" parent="h_gXAqal29AzcA71INI1-185" source="h_gXAqal29AzcA71INI1-136" target="h_gXAqal29AzcA71INI1-131" edge="1">
          <mxGeometry relative="1" as="geometry" />
        </mxCell>
        <mxCell id="h_gXAqal29AzcA71INI1-162" value="否" style="edgeLabel;html=1;align=center;verticalAlign=middle;resizable=0;points=[];" parent="h_gXAqal29AzcA71INI1-161" vertex="1" connectable="0">
          <mxGeometry x="-0.164" y="1" relative="1" as="geometry">
            <mxPoint as="offset" />
          </mxGeometry>
        </mxCell>
        <mxCell id="h_gXAqal29AzcA71INI1-163" style="edgeStyle=orthogonalEdgeStyle;rounded=0;orthogonalLoop=1;jettySize=auto;html=1;entryX=1;entryY=0.5;entryDx=0;entryDy=0;" parent="h_gXAqal29AzcA71INI1-185" source="h_gXAqal29AzcA71INI1-136" target="h_gXAqal29AzcA71INI1-140" edge="1">
          <mxGeometry relative="1" as="geometry">
            <Array as="points">
              <mxPoint x="399.97" y="278.25" />
            </Array>
          </mxGeometry>
        </mxCell>
        <mxCell id="h_gXAqal29AzcA71INI1-164" value="是" style="edgeLabel;html=1;align=center;verticalAlign=middle;resizable=0;points=[];" parent="h_gXAqal29AzcA71INI1-163" vertex="1" connectable="0">
          <mxGeometry x="-0.8667" relative="1" as="geometry">
            <mxPoint as="offset" />
          </mxGeometry>
        </mxCell>
        <mxCell id="h_gXAqal29AzcA71INI1-136" value="是否完成&lt;div&gt;遍历？&lt;/div&gt;" style="rhombus;whiteSpace=wrap;html=1;" parent="h_gXAqal29AzcA71INI1-185" vertex="1">
          <mxGeometry x="359.47" y="413.25" width="80" height="60" as="geometry" />
        </mxCell>
        <mxCell id="h_gXAqal29AzcA71INI1-144" value="" style="edgeStyle=orthogonalEdgeStyle;rounded=0;orthogonalLoop=1;jettySize=auto;html=1;" parent="h_gXAqal29AzcA71INI1-185" source="h_gXAqal29AzcA71INI1-139" target="h_gXAqal29AzcA71INI1-120" edge="1">
          <mxGeometry relative="1" as="geometry" />
        </mxCell>
        <mxCell id="h_gXAqal29AzcA71INI1-139" value="&lt;div&gt;pop 边缘&lt;/div&gt;&lt;div&gt;像素队列&lt;/div&gt;" style="rounded=0;whiteSpace=wrap;html=1;" parent="h_gXAqal29AzcA71INI1-185" vertex="1">
          <mxGeometry x="119.97000000000003" y="348.25" width="70" height="30" as="geometry" />
        </mxCell>
        <mxCell id="h_gXAqal29AzcA71INI1-141" value="" style="edgeStyle=orthogonalEdgeStyle;rounded=0;orthogonalLoop=1;jettySize=auto;html=1;" parent="h_gXAqal29AzcA71INI1-185" source="h_gXAqal29AzcA71INI1-140" target="h_gXAqal29AzcA71INI1-139" edge="1">
          <mxGeometry relative="1" as="geometry" />
        </mxCell>
        <mxCell id="h_gXAqal29AzcA71INI1-142" value="否" style="edgeLabel;html=1;align=center;verticalAlign=middle;resizable=0;points=[];" parent="h_gXAqal29AzcA71INI1-141" vertex="1" connectable="0">
          <mxGeometry x="-0.6381" relative="1" as="geometry">
            <mxPoint y="7" as="offset" />
          </mxGeometry>
        </mxCell>
        <mxCell id="h_gXAqal29AzcA71INI1-151" style="edgeStyle=orthogonalEdgeStyle;rounded=0;orthogonalLoop=1;jettySize=auto;html=1;entryX=0;entryY=0.5;entryDx=0;entryDy=0;" parent="h_gXAqal29AzcA71INI1-185" source="h_gXAqal29AzcA71INI1-140" target="h_gXAqal29AzcA71INI1-127" edge="1">
          <mxGeometry relative="1" as="geometry">
            <Array as="points">
              <mxPoint x="49.97000000000003" y="278.25" />
              <mxPoint x="49.97000000000003" y="533.25" />
            </Array>
          </mxGeometry>
        </mxCell>
        <mxCell id="h_gXAqal29AzcA71INI1-152" value="是" style="edgeLabel;html=1;align=center;verticalAlign=middle;resizable=0;points=[];" parent="h_gXAqal29AzcA71INI1-151" vertex="1" connectable="0">
          <mxGeometry x="-0.8572" relative="1" as="geometry">
            <mxPoint as="offset" />
          </mxGeometry>
        </mxCell>
        <mxCell id="h_gXAqal29AzcA71INI1-140" value="&lt;div&gt;边缘&lt;span style=&quot;background-color: transparent; color: light-dark(rgb(0, 0, 0), rgb(255, 255, 255));&quot;&gt;像&lt;/span&gt;&lt;/div&gt;&lt;div&gt;&lt;span style=&quot;background-color: transparent; color: light-dark(rgb(0, 0, 0), rgb(255, 255, 255));&quot;&gt;素&lt;/span&gt;&lt;span style=&quot;background-color: transparent; color: light-dark(rgb(0, 0, 0), rgb(255, 255, 255));&quot;&gt;队列是否&lt;/span&gt;&lt;/div&gt;&lt;div&gt;&lt;span style=&quot;background-color: transparent; color: light-dark(rgb(0, 0, 0), rgb(255, 255, 255));&quot;&gt;为空&lt;/span&gt;&lt;/div&gt;" style="rhombus;whiteSpace=wrap;html=1;" parent="h_gXAqal29AzcA71INI1-185" vertex="1">
          <mxGeometry x="114.97000000000003" y="248.25" width="80" height="60" as="geometry" />
        </mxCell>
        <mxCell id="h_gXAqal29AzcA71INI1-150" style="edgeStyle=orthogonalEdgeStyle;rounded=0;orthogonalLoop=1;jettySize=auto;html=1;entryX=0.5;entryY=0;entryDx=0;entryDy=0;" parent="h_gXAqal29AzcA71INI1-185" source="h_gXAqal29AzcA71INI1-145" target="h_gXAqal29AzcA71INI1-118" edge="1">
          <mxGeometry relative="1" as="geometry" />
        </mxCell>
        <mxCell id="h_gXAqal29AzcA71INI1-145" value="&lt;div&gt;初始化左上右下返回值&lt;/div&gt;" style="rounded=0;whiteSpace=wrap;html=1;" parent="h_gXAqal29AzcA71INI1-185" vertex="1">
          <mxGeometry x="120.47000000000003" y="44.25" width="70" height="30" as="geometry" />
        </mxCell>
        <mxCell id="h_gXAqal29AzcA71INI1-166" value="" style="edgeStyle=orthogonalEdgeStyle;rounded=0;orthogonalLoop=1;jettySize=auto;html=1;" parent="h_gXAqal29AzcA71INI1-185" source="h_gXAqal29AzcA71INI1-156" target="h_gXAqal29AzcA71INI1-165" edge="1">
          <mxGeometry relative="1" as="geometry" />
        </mxCell>
        <mxCell id="h_gXAqal29AzcA71INI1-156" value="&lt;div&gt;加入边缘&lt;/div&gt;&lt;div&gt;像素队列&lt;/div&gt;" style="rounded=0;whiteSpace=wrap;html=1;" parent="h_gXAqal29AzcA71INI1-185" vertex="1">
          <mxGeometry x="364.47" y="658.25" width="70" height="30" as="geometry" />
        </mxCell>
        <mxCell id="h_gXAqal29AzcA71INI1-159" value="" style="edgeStyle=orthogonalEdgeStyle;rounded=0;orthogonalLoop=1;jettySize=auto;html=1;" parent="h_gXAqal29AzcA71INI1-185" source="h_gXAqal29AzcA71INI1-157" target="h_gXAqal29AzcA71INI1-156" edge="1">
          <mxGeometry relative="1" as="geometry" />
        </mxCell>
        <mxCell id="h_gXAqal29AzcA71INI1-157" value="&lt;div&gt;加入已访问像素 MAP&lt;/div&gt;" style="rounded=0;whiteSpace=wrap;html=1;" parent="h_gXAqal29AzcA71INI1-185" vertex="1">
          <mxGeometry x="364.47" y="608.25" width="70" height="30" as="geometry" />
        </mxCell>
        <mxCell id="h_gXAqal29AzcA71INI1-165" value="左上=(min(curr_x, i_x), min(curr_y, i_y))&lt;div&gt;右下=(max(curr_x, i_x), max(curr_y, i_y))&lt;br&gt;&lt;/div&gt;" style="rounded=0;whiteSpace=wrap;html=1;" parent="h_gXAqal29AzcA71INI1-185" vertex="1">
          <mxGeometry x="277.72" y="698.25" width="243.5" height="40" as="geometry" />
        </mxCell>
        <mxCell id="h_gXAqal29AzcA71INI1-168" style="edgeStyle=orthogonalEdgeStyle;rounded=0;orthogonalLoop=1;jettySize=auto;html=1;entryX=0.089;entryY=1.032;entryDx=0;entryDy=0;entryPerimeter=0;" parent="h_gXAqal29AzcA71INI1-185" source="h_gXAqal29AzcA71INI1-165" target="h_gXAqal29AzcA71INI1-134" edge="1">
          <mxGeometry relative="1" as="geometry">
            <Array as="points">
              <mxPoint x="255.97000000000003" y="718.25" />
              <mxPoint x="255.97000000000003" y="578.25" />
            </Array>
          </mxGeometry>
        </mxCell>
        <mxCell id="h_gXAqal29AzcA71INI1-184" value="" style="rounded=0;whiteSpace=wrap;html=1;fillColor=none;" parent="h_gXAqal29AzcA71INI1-185" vertex="1">
          <mxGeometry x="0.22000000000002728" width="544" height="754" as="geometry" />
        </mxCell>
        <mxCell id="h_gXAqal29AzcA71INI1-186" value="" style="group" parent="1" vertex="1" connectable="0">
          <mxGeometry x="390" y="350" width="491" height="330" as="geometry" />
        </mxCell>
        <mxCell id="h_gXAqal29AzcA71INI1-182" value="" style="rounded=0;whiteSpace=wrap;html=1;fillColor=none;" parent="h_gXAqal29AzcA71INI1-186" vertex="1">
          <mxGeometry x="4" width="487" height="330" as="geometry" />
        </mxCell>
        <mxCell id="h_gXAqal29AzcA71INI1-19" value="测试集" style="text;html=1;align=center;verticalAlign=middle;resizable=0;points=[];autosize=1;strokeColor=none;fillColor=none;" parent="h_gXAqal29AzcA71INI1-186" vertex="1">
          <mxGeometry width="60" height="30" as="geometry" />
        </mxCell>
        <mxCell id="h_gXAqal29AzcA71INI1-20" value="" style="rounded=0;whiteSpace=wrap;html=1;" parent="h_gXAqal29AzcA71INI1-186" vertex="1">
          <mxGeometry x="11" y="86" width="70" height="70" as="geometry" />
        </mxCell>
        <mxCell id="h_gXAqal29AzcA71INI1-21" value="" style="rounded=0;whiteSpace=wrap;html=1;fillColor=#f8cecc;strokeColor=#b85450;" parent="h_gXAqal29AzcA71INI1-186" vertex="1">
          <mxGeometry x="36" y="101" width="20" height="40" as="geometry" />
        </mxCell>
        <mxCell id="h_gXAqal29AzcA71INI1-23" value="形状" style="rounded=0;whiteSpace=wrap;html=1;fillColor=#f8cecc;strokeColor=#b85450;" parent="h_gXAqal29AzcA71INI1-186" vertex="1">
          <mxGeometry x="111" y="40" width="40" height="30" as="geometry" />
        </mxCell>
        <mxCell id="h_gXAqal29AzcA71INI1-25" value="图片" style="rounded=0;whiteSpace=wrap;html=1;" parent="h_gXAqal29AzcA71INI1-186" vertex="1">
          <mxGeometry x="61" y="40" width="40" height="30" as="geometry" />
        </mxCell>
        <mxCell id="h_gXAqal29AzcA71INI1-26" value="" style="rounded=0;whiteSpace=wrap;html=1;" parent="h_gXAqal29AzcA71INI1-186" vertex="1">
          <mxGeometry x="91" y="86" width="70" height="70" as="geometry" />
        </mxCell>
        <mxCell id="h_gXAqal29AzcA71INI1-27" value="" style="rounded=0;whiteSpace=wrap;html=1;fillColor=#f8cecc;strokeColor=#b85450;" parent="h_gXAqal29AzcA71INI1-186" vertex="1">
          <mxGeometry x="113.5" y="92" width="25" height="25" as="geometry" />
        </mxCell>
        <mxCell id="h_gXAqal29AzcA71INI1-28" value="" style="rounded=0;whiteSpace=wrap;html=1;fillColor=#f8cecc;strokeColor=#b85450;" parent="h_gXAqal29AzcA71INI1-186" vertex="1">
          <mxGeometry x="113.5" y="126" width="25" height="25" as="geometry" />
        </mxCell>
        <mxCell id="h_gXAqal29AzcA71INI1-29" value="" style="rounded=0;whiteSpace=wrap;html=1;" parent="h_gXAqal29AzcA71INI1-186" vertex="1">
          <mxGeometry x="171" y="86" width="70" height="70" as="geometry" />
        </mxCell>
        <mxCell id="h_gXAqal29AzcA71INI1-30" value="" style="rounded=0;whiteSpace=wrap;html=1;fillColor=#f8cecc;strokeColor=#b85450;" parent="h_gXAqal29AzcA71INI1-186" vertex="1">
          <mxGeometry x="193.5" y="92" width="25" height="25" as="geometry" />
        </mxCell>
        <mxCell id="h_gXAqal29AzcA71INI1-31" value="" style="rounded=0;whiteSpace=wrap;html=1;fillColor=#f8cecc;strokeColor=#b85450;" parent="h_gXAqal29AzcA71INI1-186" vertex="1">
          <mxGeometry x="211" y="126" width="25" height="25" as="geometry" />
        </mxCell>
        <mxCell id="h_gXAqal29AzcA71INI1-32" value="" style="rounded=0;whiteSpace=wrap;html=1;" parent="h_gXAqal29AzcA71INI1-186" vertex="1">
          <mxGeometry x="251" y="86" width="70" height="70" as="geometry" />
        </mxCell>
        <mxCell id="h_gXAqal29AzcA71INI1-33" value="" style="rounded=0;whiteSpace=wrap;html=1;fillColor=#f8cecc;strokeColor=#b85450;" parent="h_gXAqal29AzcA71INI1-186" vertex="1">
          <mxGeometry x="275" y="92" width="25" height="25" as="geometry" />
        </mxCell>
        <mxCell id="h_gXAqal29AzcA71INI1-34" value="" style="rounded=0;whiteSpace=wrap;html=1;fillColor=#f8cecc;strokeColor=#b85450;" parent="h_gXAqal29AzcA71INI1-186" vertex="1">
          <mxGeometry x="261" y="126" width="25" height="25" as="geometry" />
        </mxCell>
        <mxCell id="h_gXAqal29AzcA71INI1-35" value="" style="rounded=0;whiteSpace=wrap;html=1;" parent="h_gXAqal29AzcA71INI1-186" vertex="1">
          <mxGeometry x="331" y="86" width="70" height="70" as="geometry" />
        </mxCell>
        <mxCell id="h_gXAqal29AzcA71INI1-36" value="" style="rounded=0;whiteSpace=wrap;html=1;fillColor=#f8cecc;strokeColor=#b85450;" parent="h_gXAqal29AzcA71INI1-186" vertex="1">
          <mxGeometry x="336" y="92" width="25" height="25" as="geometry" />
        </mxCell>
        <mxCell id="h_gXAqal29AzcA71INI1-37" value="" style="rounded=0;whiteSpace=wrap;html=1;fillColor=#f8cecc;strokeColor=#b85450;" parent="h_gXAqal29AzcA71INI1-186" vertex="1">
          <mxGeometry x="371" y="126" width="25" height="25" as="geometry" />
        </mxCell>
        <mxCell id="h_gXAqal29AzcA71INI1-38" value="" style="rounded=0;whiteSpace=wrap;html=1;" parent="h_gXAqal29AzcA71INI1-186" vertex="1">
          <mxGeometry x="411" y="86" width="70" height="70" as="geometry" />
        </mxCell>
        <mxCell id="h_gXAqal29AzcA71INI1-39" value="" style="rounded=0;whiteSpace=wrap;html=1;fillColor=#f8cecc;strokeColor=#b85450;" parent="h_gXAqal29AzcA71INI1-186" vertex="1">
          <mxGeometry x="451" y="92" width="25" height="25" as="geometry" />
        </mxCell>
        <mxCell id="h_gXAqal29AzcA71INI1-40" value="" style="rounded=0;whiteSpace=wrap;html=1;fillColor=#f8cecc;strokeColor=#b85450;" parent="h_gXAqal29AzcA71INI1-186" vertex="1">
          <mxGeometry x="416" y="126" width="25" height="25" as="geometry" />
        </mxCell>
        <mxCell id="h_gXAqal29AzcA71INI1-41" value="" style="rounded=0;whiteSpace=wrap;html=1;" parent="h_gXAqal29AzcA71INI1-186" vertex="1">
          <mxGeometry x="11" y="166" width="70" height="70" as="geometry" />
        </mxCell>
        <mxCell id="h_gXAqal29AzcA71INI1-42" value="" style="rounded=0;whiteSpace=wrap;html=1;fillColor=#f8cecc;strokeColor=#b85450;" parent="h_gXAqal29AzcA71INI1-186" vertex="1">
          <mxGeometry x="20" y="188.5" width="25" height="25" as="geometry" />
        </mxCell>
        <mxCell id="h_gXAqal29AzcA71INI1-43" value="" style="rounded=0;whiteSpace=wrap;html=1;fillColor=#f8cecc;strokeColor=#b85450;" parent="h_gXAqal29AzcA71INI1-186" vertex="1">
          <mxGeometry x="51" y="188.5" width="25" height="25" as="geometry" />
        </mxCell>
        <mxCell id="h_gXAqal29AzcA71INI1-44" value="" style="rounded=0;whiteSpace=wrap;html=1;" parent="h_gXAqal29AzcA71INI1-186" vertex="1">
          <mxGeometry x="91" y="166" width="70" height="70" as="geometry" />
        </mxCell>
        <mxCell id="h_gXAqal29AzcA71INI1-45" value="" style="rounded=0;whiteSpace=wrap;html=1;fillColor=#f8cecc;strokeColor=#b85450;" parent="h_gXAqal29AzcA71INI1-186" vertex="1">
          <mxGeometry x="100" y="188.5" width="25" height="25" as="geometry" />
        </mxCell>
        <mxCell id="h_gXAqal29AzcA71INI1-46" value="" style="rounded=0;whiteSpace=wrap;html=1;fillColor=#f8cecc;strokeColor=#b85450;" parent="h_gXAqal29AzcA71INI1-186" vertex="1">
          <mxGeometry x="131" y="176" width="25" height="25" as="geometry" />
        </mxCell>
        <mxCell id="h_gXAqal29AzcA71INI1-47" value="" style="rounded=0;whiteSpace=wrap;html=1;" parent="h_gXAqal29AzcA71INI1-186" vertex="1">
          <mxGeometry x="171" y="166" width="70" height="70" as="geometry" />
        </mxCell>
        <mxCell id="h_gXAqal29AzcA71INI1-48" value="" style="rounded=0;whiteSpace=wrap;html=1;fillColor=#f8cecc;strokeColor=#b85450;" parent="h_gXAqal29AzcA71INI1-186" vertex="1">
          <mxGeometry x="180" y="188.5" width="25" height="25" as="geometry" />
        </mxCell>
        <mxCell id="h_gXAqal29AzcA71INI1-49" value="" style="rounded=0;whiteSpace=wrap;html=1;fillColor=#f8cecc;strokeColor=#b85450;" parent="h_gXAqal29AzcA71INI1-186" vertex="1">
          <mxGeometry x="211" y="201" width="25" height="25" as="geometry" />
        </mxCell>
        <mxCell id="h_gXAqal29AzcA71INI1-50" value="" style="rounded=0;whiteSpace=wrap;html=1;" parent="h_gXAqal29AzcA71INI1-186" vertex="1">
          <mxGeometry x="251" y="166" width="70" height="70" as="geometry" />
        </mxCell>
        <mxCell id="h_gXAqal29AzcA71INI1-51" value="" style="rounded=0;whiteSpace=wrap;html=1;fillColor=#f8cecc;strokeColor=#b85450;" parent="h_gXAqal29AzcA71INI1-186" vertex="1">
          <mxGeometry x="260" y="188.5" width="11" height="25" as="geometry" />
        </mxCell>
        <mxCell id="h_gXAqal29AzcA71INI1-52" value="" style="rounded=0;whiteSpace=wrap;html=1;fillColor=#f8cecc;strokeColor=#b85450;" parent="h_gXAqal29AzcA71INI1-186" vertex="1">
          <mxGeometry x="277" y="177" width="10" height="25" as="geometry" />
        </mxCell>
        <mxCell id="h_gXAqal29AzcA71INI1-53" value="" style="rounded=0;whiteSpace=wrap;html=1;fillColor=#f8cecc;strokeColor=#b85450;" parent="h_gXAqal29AzcA71INI1-186" vertex="1">
          <mxGeometry x="295" y="195.5" width="11" height="30.5" as="geometry" />
        </mxCell>
        <mxCell id="h_gXAqal29AzcA71INI1-54" value="" style="rounded=0;whiteSpace=wrap;html=1;" parent="h_gXAqal29AzcA71INI1-186" vertex="1">
          <mxGeometry x="11" y="246" width="70" height="70" as="geometry" />
        </mxCell>
        <mxCell id="h_gXAqal29AzcA71INI1-55" value="" style="rounded=0;whiteSpace=wrap;html=1;fillColor=#f8cecc;strokeColor=#b85450;" parent="h_gXAqal29AzcA71INI1-186" vertex="1">
          <mxGeometry x="411" y="166" width="70" height="70" as="geometry" />
        </mxCell>
        <mxCell id="h_gXAqal29AzcA71INI1-56" value="仅 1 像素有值" style="rounded=0;whiteSpace=wrap;html=1;" parent="h_gXAqal29AzcA71INI1-186" vertex="1">
          <mxGeometry x="331" y="166" width="70" height="70" as="geometry" />
        </mxCell>
        <mxCell id="9hCQHj9jtqaxEa1bAKNQ-109" value="执行 sprite 扫描切分出单独 sprite" style="rounded=0;whiteSpace=wrap;html=1;fillColor=#d5e8d4;strokeColor=#82b366;" vertex="1" parent="1">
          <mxGeometry x="170" y="269.5" width="100" height="50" as="geometry" />
        </mxCell>
        <mxCell id="9hCQHj9jtqaxEa1bAKNQ-110" value="OR" style="text;html=1;align=center;verticalAlign=middle;resizable=0;points=[];autosize=1;strokeColor=none;fillColor=none;" vertex="1" parent="1">
          <mxGeometry x="130" y="279.5" width="40" height="30" as="geometry" />
        </mxCell>
        <mxCell id="9hCQHj9jtqaxEa1bAKNQ-111" value="" style="group" vertex="1" connectable="0" parent="1">
          <mxGeometry x="100" y="760" width="564" height="1440" as="geometry" />
        </mxCell>
        <mxCell id="9hCQHj9jtqaxEa1bAKNQ-40" value="" style="rounded=0;whiteSpace=wrap;html=1;fillColor=#d5e8d4;strokeColor=#82b366;" vertex="1" parent="9hCQHj9jtqaxEa1bAKNQ-111">
          <mxGeometry width="564" height="1440" as="geometry" />
        </mxCell>
        <mxCell id="9hCQHj9jtqaxEa1bAKNQ-108" value="" style="rounded=0;whiteSpace=wrap;html=1;fillColor=#dae8fc;strokeColor=#6c8ebf;" vertex="1" parent="9hCQHj9jtqaxEa1bAKNQ-111">
          <mxGeometry x="90" y="965" width="370" height="245" as="geometry" />
        </mxCell>
        <mxCell id="9hCQHj9jtqaxEa1bAKNQ-107" value="" style="rounded=0;whiteSpace=wrap;html=1;fillColor=#dae8fc;strokeColor=#6c8ebf;" vertex="1" parent="9hCQHj9jtqaxEa1bAKNQ-111">
          <mxGeometry x="90" y="695" width="370" height="245" as="geometry" />
        </mxCell>
        <mxCell id="9hCQHj9jtqaxEa1bAKNQ-106" value="" style="rounded=0;whiteSpace=wrap;html=1;fillColor=#dae8fc;strokeColor=#6c8ebf;" vertex="1" parent="9hCQHj9jtqaxEa1bAKNQ-111">
          <mxGeometry x="90" y="431" width="370" height="245" as="geometry" />
        </mxCell>
        <mxCell id="9hCQHj9jtqaxEa1bAKNQ-105" value="" style="rounded=0;whiteSpace=wrap;html=1;fillColor=#dae8fc;strokeColor=#6c8ebf;" vertex="1" parent="9hCQHj9jtqaxEa1bAKNQ-111">
          <mxGeometry x="90" y="175" width="370" height="245" as="geometry" />
        </mxCell>
        <mxCell id="9hCQHj9jtqaxEa1bAKNQ-2" value="&lt;div&gt;sprite 扫描算法&lt;/div&gt;" style="text;html=1;align=center;verticalAlign=middle;whiteSpace=wrap;rounded=0;" vertex="1" parent="9hCQHj9jtqaxEa1bAKNQ-111">
          <mxGeometry width="100" height="30" as="geometry" />
        </mxCell>
        <mxCell id="9hCQHj9jtqaxEa1bAKNQ-43" value="" style="edgeStyle=orthogonalEdgeStyle;rounded=0;orthogonalLoop=1;jettySize=auto;html=1;" edge="1" parent="9hCQHj9jtqaxEa1bAKNQ-111" source="9hCQHj9jtqaxEa1bAKNQ-41" target="9hCQHj9jtqaxEa1bAKNQ-42">
          <mxGeometry relative="1" as="geometry" />
        </mxCell>
        <mxCell id="9hCQHj9jtqaxEa1bAKNQ-41" value="非透明像素点起点" style="rounded=0;whiteSpace=wrap;html=1;" vertex="1" parent="9hCQHj9jtqaxEa1bAKNQ-111">
          <mxGeometry x="140" y="30" width="100" height="30" as="geometry" />
        </mxCell>
        <mxCell id="9hCQHj9jtqaxEa1bAKNQ-45" value="" style="edgeStyle=orthogonalEdgeStyle;rounded=0;orthogonalLoop=1;jettySize=auto;html=1;" edge="1" parent="9hCQHj9jtqaxEa1bAKNQ-111" source="9hCQHj9jtqaxEa1bAKNQ-42" target="9hCQHj9jtqaxEa1bAKNQ-44">
          <mxGeometry relative="1" as="geometry" />
        </mxCell>
        <mxCell id="9hCQHj9jtqaxEa1bAKNQ-42" value="设置 width = 1&lt;div&gt;height = 1&lt;/div&gt;" style="rounded=0;whiteSpace=wrap;html=1;" vertex="1" parent="9hCQHj9jtqaxEa1bAKNQ-111">
          <mxGeometry x="140" y="80" width="100" height="30" as="geometry" />
        </mxCell>
        <mxCell id="9hCQHj9jtqaxEa1bAKNQ-44" value="向右探索&lt;div&gt;(临时 x)&lt;/div&gt;" style="rounded=0;whiteSpace=wrap;html=1;" vertex="1" parent="9hCQHj9jtqaxEa1bAKNQ-111">
          <mxGeometry x="140" y="280" width="100" height="30" as="geometry" />
        </mxCell>
        <mxCell id="9hCQHj9jtqaxEa1bAKNQ-52" value="" style="edgeStyle=orthogonalEdgeStyle;rounded=0;orthogonalLoop=1;jettySize=auto;html=1;" edge="1" parent="9hCQHj9jtqaxEa1bAKNQ-111" source="9hCQHj9jtqaxEa1bAKNQ-46" target="9hCQHj9jtqaxEa1bAKNQ-51">
          <mxGeometry relative="1" as="geometry" />
        </mxCell>
        <mxCell id="9hCQHj9jtqaxEa1bAKNQ-55" value="否" style="edgeLabel;html=1;align=center;verticalAlign=middle;resizable=0;points=[];" vertex="1" connectable="0" parent="9hCQHj9jtqaxEa1bAKNQ-52">
          <mxGeometry x="-0.5325" relative="1" as="geometry">
            <mxPoint as="offset" />
          </mxGeometry>
        </mxCell>
        <mxCell id="9hCQHj9jtqaxEa1bAKNQ-57" value="" style="rounded=0;orthogonalLoop=1;jettySize=auto;html=1;exitX=0.5;exitY=1;exitDx=0;exitDy=0;entryX=1;entryY=0.5;entryDx=0;entryDy=0;edgeStyle=orthogonalEdgeStyle;" edge="1" parent="9hCQHj9jtqaxEa1bAKNQ-111" source="9hCQHj9jtqaxEa1bAKNQ-46" target="9hCQHj9jtqaxEa1bAKNQ-56">
          <mxGeometry relative="1" as="geometry" />
        </mxCell>
        <mxCell id="9hCQHj9jtqaxEa1bAKNQ-70" value="是" style="edgeLabel;html=1;align=center;verticalAlign=middle;resizable=0;points=[];" vertex="1" connectable="0" parent="9hCQHj9jtqaxEa1bAKNQ-57">
          <mxGeometry x="-0.6828" y="1" relative="1" as="geometry">
            <mxPoint x="-1" y="-4" as="offset" />
          </mxGeometry>
        </mxCell>
        <mxCell id="9hCQHj9jtqaxEa1bAKNQ-46" value="当前 x 下&lt;div&gt;向下高度为 height&amp;nbsp;&lt;/div&gt;&lt;div&gt;的边是否&lt;span style=&quot;background-color: transparent; color: light-dark(rgb(0, 0, 0), rgb(255, 255, 255));&quot;&gt;全&lt;/span&gt;&lt;/div&gt;&lt;div&gt;&lt;span style=&quot;background-color: transparent; color: light-dark(rgb(0, 0, 0), rgb(255, 255, 255));&quot;&gt;透明&lt;/span&gt;&lt;/div&gt;" style="rhombus;whiteSpace=wrap;html=1;" vertex="1" parent="9hCQHj9jtqaxEa1bAKNQ-111">
          <mxGeometry x="290" y="250" width="120" height="90" as="geometry" />
        </mxCell>
        <mxCell id="9hCQHj9jtqaxEa1bAKNQ-48" style="edgeStyle=orthogonalEdgeStyle;rounded=0;orthogonalLoop=1;jettySize=auto;html=1;entryX=0.036;entryY=0.501;entryDx=0;entryDy=0;entryPerimeter=0;" edge="1" parent="9hCQHj9jtqaxEa1bAKNQ-111" source="9hCQHj9jtqaxEa1bAKNQ-44" target="9hCQHj9jtqaxEa1bAKNQ-46">
          <mxGeometry relative="1" as="geometry" />
        </mxCell>
        <mxCell id="9hCQHj9jtqaxEa1bAKNQ-51" value="width += 1&lt;div&gt;check_edge_cnt +=1&lt;/div&gt;" style="rounded=0;whiteSpace=wrap;html=1;" vertex="1" parent="9hCQHj9jtqaxEa1bAKNQ-111">
          <mxGeometry x="285" y="190" width="130" height="30" as="geometry" />
        </mxCell>
        <mxCell id="9hCQHj9jtqaxEa1bAKNQ-54" value="" style="endArrow=classic;html=1;rounded=0;exitX=0.25;exitY=1;exitDx=0;exitDy=0;entryX=0.75;entryY=0;entryDx=0;entryDy=0;edgeStyle=orthogonalEdgeStyle;" edge="1" parent="9hCQHj9jtqaxEa1bAKNQ-111" source="9hCQHj9jtqaxEa1bAKNQ-51" target="9hCQHj9jtqaxEa1bAKNQ-44">
          <mxGeometry width="50" height="50" relative="1" as="geometry">
            <mxPoint x="280" y="400" as="sourcePoint" />
            <mxPoint x="330" y="350" as="targetPoint" />
          </mxGeometry>
        </mxCell>
        <mxCell id="9hCQHj9jtqaxEa1bAKNQ-62" style="rounded=0;orthogonalLoop=1;jettySize=auto;html=1;entryX=0.5;entryY=0;entryDx=0;entryDy=0;" edge="1" parent="9hCQHj9jtqaxEa1bAKNQ-111" source="9hCQHj9jtqaxEa1bAKNQ-56" target="9hCQHj9jtqaxEa1bAKNQ-61">
          <mxGeometry relative="1" as="geometry" />
        </mxCell>
        <mxCell id="9hCQHj9jtqaxEa1bAKNQ-56" value="&lt;div&gt;total_check_cnt +=&lt;/div&gt;check_edge_cnt&lt;div&gt;check_edge_cnt = 0&lt;/div&gt;" style="rounded=0;whiteSpace=wrap;html=1;" vertex="1" parent="9hCQHj9jtqaxEa1bAKNQ-111">
          <mxGeometry x="125" y="350" width="130" height="50" as="geometry" />
        </mxCell>
        <mxCell id="9hCQHj9jtqaxEa1bAKNQ-65" value="" style="edgeStyle=orthogonalEdgeStyle;rounded=0;orthogonalLoop=1;jettySize=auto;html=1;" edge="1" parent="9hCQHj9jtqaxEa1bAKNQ-111" source="9hCQHj9jtqaxEa1bAKNQ-61" target="9hCQHj9jtqaxEa1bAKNQ-63">
          <mxGeometry relative="1" as="geometry" />
        </mxCell>
        <mxCell id="9hCQHj9jtqaxEa1bAKNQ-61" value="向下探索&lt;div&gt;(临时 y)&lt;br&gt;&lt;/div&gt;" style="rounded=0;whiteSpace=wrap;html=1;" vertex="1" parent="9hCQHj9jtqaxEa1bAKNQ-111">
          <mxGeometry x="140" y="541" width="100" height="30" as="geometry" />
        </mxCell>
        <mxCell id="9hCQHj9jtqaxEa1bAKNQ-68" value="否" style="edgeStyle=orthogonalEdgeStyle;rounded=0;orthogonalLoop=1;jettySize=auto;html=1;" edge="1" parent="9hCQHj9jtqaxEa1bAKNQ-111" source="9hCQHj9jtqaxEa1bAKNQ-63" target="9hCQHj9jtqaxEa1bAKNQ-67">
          <mxGeometry x="0.2" relative="1" as="geometry">
            <mxPoint as="offset" />
          </mxGeometry>
        </mxCell>
        <mxCell id="9hCQHj9jtqaxEa1bAKNQ-72" style="edgeStyle=orthogonalEdgeStyle;rounded=0;orthogonalLoop=1;jettySize=auto;html=1;entryX=1;entryY=0.5;entryDx=0;entryDy=0;exitX=0.5;exitY=1;exitDx=0;exitDy=0;" edge="1" parent="9hCQHj9jtqaxEa1bAKNQ-111" source="9hCQHj9jtqaxEa1bAKNQ-63" target="9hCQHj9jtqaxEa1bAKNQ-71">
          <mxGeometry relative="1" as="geometry" />
        </mxCell>
        <mxCell id="9hCQHj9jtqaxEa1bAKNQ-73" value="是" style="edgeLabel;html=1;align=center;verticalAlign=middle;resizable=0;points=[];" vertex="1" connectable="0" parent="9hCQHj9jtqaxEa1bAKNQ-72">
          <mxGeometry x="-0.6794" y="-1" relative="1" as="geometry">
            <mxPoint as="offset" />
          </mxGeometry>
        </mxCell>
        <mxCell id="9hCQHj9jtqaxEa1bAKNQ-63" value="当前 y 下&lt;div&gt;向右宽度为 width&lt;/div&gt;&lt;div&gt;的边是否&lt;span style=&quot;background-color: transparent; color: light-dark(rgb(0, 0, 0), rgb(255, 255, 255));&quot;&gt;全&lt;/span&gt;&lt;/div&gt;&lt;div&gt;&lt;span style=&quot;background-color: transparent; color: light-dark(rgb(0, 0, 0), rgb(255, 255, 255));&quot;&gt;透明&lt;/span&gt;&lt;/div&gt;" style="rhombus;whiteSpace=wrap;html=1;" vertex="1" parent="9hCQHj9jtqaxEa1bAKNQ-111">
          <mxGeometry x="295" y="511" width="120" height="90" as="geometry" />
        </mxCell>
        <mxCell id="9hCQHj9jtqaxEa1bAKNQ-69" style="edgeStyle=orthogonalEdgeStyle;rounded=0;orthogonalLoop=1;jettySize=auto;html=1;entryX=0.75;entryY=0;entryDx=0;entryDy=0;exitX=0.25;exitY=1;exitDx=0;exitDy=0;" edge="1" parent="9hCQHj9jtqaxEa1bAKNQ-111" source="9hCQHj9jtqaxEa1bAKNQ-67" target="9hCQHj9jtqaxEa1bAKNQ-61">
          <mxGeometry relative="1" as="geometry">
            <Array as="points">
              <mxPoint x="322" y="500" />
              <mxPoint x="215" y="500" />
            </Array>
          </mxGeometry>
        </mxCell>
        <mxCell id="9hCQHj9jtqaxEa1bAKNQ-67" value="height += 1&lt;div&gt;check_edge_cnt +=1&lt;/div&gt;" style="rounded=0;whiteSpace=wrap;html=1;" vertex="1" parent="9hCQHj9jtqaxEa1bAKNQ-111">
          <mxGeometry x="290" y="451" width="130" height="30" as="geometry" />
        </mxCell>
        <mxCell id="9hCQHj9jtqaxEa1bAKNQ-75" value="" style="edgeStyle=orthogonalEdgeStyle;rounded=0;orthogonalLoop=1;jettySize=auto;html=1;" edge="1" parent="9hCQHj9jtqaxEa1bAKNQ-111" source="9hCQHj9jtqaxEa1bAKNQ-71" target="9hCQHj9jtqaxEa1bAKNQ-74">
          <mxGeometry relative="1" as="geometry" />
        </mxCell>
        <mxCell id="9hCQHj9jtqaxEa1bAKNQ-71" value="&lt;div&gt;total_check_cnt +=&lt;/div&gt;check_edge_cnt&lt;div&gt;check_edge_cnt = 0&lt;/div&gt;" style="rounded=0;whiteSpace=wrap;html=1;" vertex="1" parent="9hCQHj9jtqaxEa1bAKNQ-111">
          <mxGeometry x="125" y="611" width="130" height="50" as="geometry" />
        </mxCell>
        <mxCell id="9hCQHj9jtqaxEa1bAKNQ-86" style="edgeStyle=orthogonalEdgeStyle;rounded=0;orthogonalLoop=1;jettySize=auto;html=1;entryX=0;entryY=0.5;entryDx=0;entryDy=0;" edge="1" parent="9hCQHj9jtqaxEa1bAKNQ-111" source="9hCQHj9jtqaxEa1bAKNQ-74" target="9hCQHj9jtqaxEa1bAKNQ-76">
          <mxGeometry relative="1" as="geometry" />
        </mxCell>
        <mxCell id="9hCQHj9jtqaxEa1bAKNQ-74" value="向左探索&lt;div&gt;x -= 1&lt;br&gt;&lt;/div&gt;" style="rounded=0;whiteSpace=wrap;html=1;" vertex="1" parent="9hCQHj9jtqaxEa1bAKNQ-111">
          <mxGeometry x="140" y="800" width="100" height="30" as="geometry" />
        </mxCell>
        <mxCell id="9hCQHj9jtqaxEa1bAKNQ-78" value="" style="edgeStyle=orthogonalEdgeStyle;rounded=0;orthogonalLoop=1;jettySize=auto;html=1;" edge="1" parent="9hCQHj9jtqaxEa1bAKNQ-111" source="9hCQHj9jtqaxEa1bAKNQ-76" target="9hCQHj9jtqaxEa1bAKNQ-77">
          <mxGeometry relative="1" as="geometry" />
        </mxCell>
        <mxCell id="9hCQHj9jtqaxEa1bAKNQ-79" value="否" style="edgeLabel;html=1;align=center;verticalAlign=middle;resizable=0;points=[];" vertex="1" connectable="0" parent="9hCQHj9jtqaxEa1bAKNQ-78">
          <mxGeometry x="0.2369" y="-1" relative="1" as="geometry">
            <mxPoint as="offset" />
          </mxGeometry>
        </mxCell>
        <mxCell id="9hCQHj9jtqaxEa1bAKNQ-82" style="edgeStyle=orthogonalEdgeStyle;rounded=0;orthogonalLoop=1;jettySize=auto;html=1;entryX=1;entryY=0.5;entryDx=0;entryDy=0;exitX=0.5;exitY=1;exitDx=0;exitDy=0;" edge="1" parent="9hCQHj9jtqaxEa1bAKNQ-111" source="9hCQHj9jtqaxEa1bAKNQ-76" target="9hCQHj9jtqaxEa1bAKNQ-81">
          <mxGeometry relative="1" as="geometry" />
        </mxCell>
        <mxCell id="9hCQHj9jtqaxEa1bAKNQ-83" value="是" style="edgeLabel;html=1;align=center;verticalAlign=middle;resizable=0;points=[];" vertex="1" connectable="0" parent="9hCQHj9jtqaxEa1bAKNQ-82">
          <mxGeometry x="-0.7385" y="1" relative="1" as="geometry">
            <mxPoint as="offset" />
          </mxGeometry>
        </mxCell>
        <mxCell id="9hCQHj9jtqaxEa1bAKNQ-76" value="当前 x 下&lt;div&gt;向下高度为 height&lt;/div&gt;&lt;div&gt;的边是否&lt;span style=&quot;background-color: transparent; color: light-dark(rgb(0, 0, 0), rgb(255, 255, 255));&quot;&gt;全&lt;/span&gt;&lt;/div&gt;&lt;div&gt;&lt;span style=&quot;background-color: transparent; color: light-dark(rgb(0, 0, 0), rgb(255, 255, 255));&quot;&gt;透明&lt;/span&gt;&lt;/div&gt;" style="rhombus;whiteSpace=wrap;html=1;" vertex="1" parent="9hCQHj9jtqaxEa1bAKNQ-111">
          <mxGeometry x="300" y="770" width="120" height="90" as="geometry" />
        </mxCell>
        <mxCell id="9hCQHj9jtqaxEa1bAKNQ-80" style="edgeStyle=orthogonalEdgeStyle;rounded=0;orthogonalLoop=1;jettySize=auto;html=1;entryX=0.75;entryY=0;entryDx=0;entryDy=0;" edge="1" parent="9hCQHj9jtqaxEa1bAKNQ-111" source="9hCQHj9jtqaxEa1bAKNQ-77" target="9hCQHj9jtqaxEa1bAKNQ-74">
          <mxGeometry relative="1" as="geometry" />
        </mxCell>
        <mxCell id="9hCQHj9jtqaxEa1bAKNQ-77" value="width += 1&lt;div&gt;check_edge_cnt +=1&lt;/div&gt;" style="rounded=0;whiteSpace=wrap;html=1;" vertex="1" parent="9hCQHj9jtqaxEa1bAKNQ-111">
          <mxGeometry x="295" y="710" width="130" height="30" as="geometry" />
        </mxCell>
        <mxCell id="9hCQHj9jtqaxEa1bAKNQ-85" value="" style="edgeStyle=orthogonalEdgeStyle;rounded=0;orthogonalLoop=1;jettySize=auto;html=1;" edge="1" parent="9hCQHj9jtqaxEa1bAKNQ-111" source="9hCQHj9jtqaxEa1bAKNQ-81" target="9hCQHj9jtqaxEa1bAKNQ-84">
          <mxGeometry relative="1" as="geometry" />
        </mxCell>
        <mxCell id="9hCQHj9jtqaxEa1bAKNQ-81" value="&lt;div&gt;total_check_cnt +=&lt;/div&gt;check_edge_cnt&lt;div&gt;check_edge_cnt = 0&lt;/div&gt;" style="rounded=0;whiteSpace=wrap;html=1;" vertex="1" parent="9hCQHj9jtqaxEa1bAKNQ-111">
          <mxGeometry x="125" y="870" width="130" height="50" as="geometry" />
        </mxCell>
        <mxCell id="9hCQHj9jtqaxEa1bAKNQ-92" value="" style="edgeStyle=orthogonalEdgeStyle;rounded=0;orthogonalLoop=1;jettySize=auto;html=1;" edge="1" parent="9hCQHj9jtqaxEa1bAKNQ-111" source="9hCQHj9jtqaxEa1bAKNQ-84" target="9hCQHj9jtqaxEa1bAKNQ-87">
          <mxGeometry relative="1" as="geometry" />
        </mxCell>
        <mxCell id="9hCQHj9jtqaxEa1bAKNQ-84" value="向上探索&lt;div&gt;y -= 1&lt;br&gt;&lt;/div&gt;" style="rounded=0;whiteSpace=wrap;html=1;" vertex="1" parent="9hCQHj9jtqaxEa1bAKNQ-111">
          <mxGeometry x="140" y="1080" width="100" height="30" as="geometry" />
        </mxCell>
        <mxCell id="9hCQHj9jtqaxEa1bAKNQ-90" value="" style="edgeStyle=orthogonalEdgeStyle;rounded=0;orthogonalLoop=1;jettySize=auto;html=1;" edge="1" parent="9hCQHj9jtqaxEa1bAKNQ-111" source="9hCQHj9jtqaxEa1bAKNQ-87" target="9hCQHj9jtqaxEa1bAKNQ-88">
          <mxGeometry relative="1" as="geometry" />
        </mxCell>
        <mxCell id="9hCQHj9jtqaxEa1bAKNQ-91" value="否" style="edgeLabel;html=1;align=center;verticalAlign=middle;resizable=0;points=[];" vertex="1" connectable="0" parent="9hCQHj9jtqaxEa1bAKNQ-90">
          <mxGeometry x="0.2369" relative="1" as="geometry">
            <mxPoint as="offset" />
          </mxGeometry>
        </mxCell>
        <mxCell id="9hCQHj9jtqaxEa1bAKNQ-94" style="edgeStyle=orthogonalEdgeStyle;rounded=0;orthogonalLoop=1;jettySize=auto;html=1;entryX=1;entryY=0.5;entryDx=0;entryDy=0;exitX=0.5;exitY=1;exitDx=0;exitDy=0;" edge="1" parent="9hCQHj9jtqaxEa1bAKNQ-111" source="9hCQHj9jtqaxEa1bAKNQ-87" target="9hCQHj9jtqaxEa1bAKNQ-93">
          <mxGeometry relative="1" as="geometry" />
        </mxCell>
        <mxCell id="9hCQHj9jtqaxEa1bAKNQ-95" value="是" style="edgeLabel;html=1;align=center;verticalAlign=middle;resizable=0;points=[];" vertex="1" connectable="0" parent="9hCQHj9jtqaxEa1bAKNQ-94">
          <mxGeometry x="-0.7495" relative="1" as="geometry">
            <mxPoint as="offset" />
          </mxGeometry>
        </mxCell>
        <mxCell id="9hCQHj9jtqaxEa1bAKNQ-87" value="当前 y 下&lt;div&gt;向右宽度为 width&lt;/div&gt;&lt;div&gt;的边是否&lt;span style=&quot;background-color: transparent; color: light-dark(rgb(0, 0, 0), rgb(255, 255, 255));&quot;&gt;全&lt;/span&gt;&lt;/div&gt;&lt;div&gt;&lt;span style=&quot;background-color: transparent; color: light-dark(rgb(0, 0, 0), rgb(255, 255, 255));&quot;&gt;透明&lt;/span&gt;&lt;/div&gt;" style="rhombus;whiteSpace=wrap;html=1;" vertex="1" parent="9hCQHj9jtqaxEa1bAKNQ-111">
          <mxGeometry x="300" y="1050" width="120" height="90" as="geometry" />
        </mxCell>
        <mxCell id="9hCQHj9jtqaxEa1bAKNQ-89" style="edgeStyle=orthogonalEdgeStyle;rounded=0;orthogonalLoop=1;jettySize=auto;html=1;entryX=0.75;entryY=0;entryDx=0;entryDy=0;" edge="1" parent="9hCQHj9jtqaxEa1bAKNQ-111" source="9hCQHj9jtqaxEa1bAKNQ-88" target="9hCQHj9jtqaxEa1bAKNQ-84">
          <mxGeometry relative="1" as="geometry" />
        </mxCell>
        <mxCell id="9hCQHj9jtqaxEa1bAKNQ-88" value="height += 1&lt;div&gt;check_edge_cnt +=1&lt;/div&gt;" style="rounded=0;whiteSpace=wrap;html=1;" vertex="1" parent="9hCQHj9jtqaxEa1bAKNQ-111">
          <mxGeometry x="295" y="990" width="130" height="30" as="geometry" />
        </mxCell>
        <mxCell id="9hCQHj9jtqaxEa1bAKNQ-97" value="" style="edgeStyle=orthogonalEdgeStyle;rounded=0;orthogonalLoop=1;jettySize=auto;html=1;" edge="1" parent="9hCQHj9jtqaxEa1bAKNQ-111" source="9hCQHj9jtqaxEa1bAKNQ-93" target="9hCQHj9jtqaxEa1bAKNQ-96">
          <mxGeometry relative="1" as="geometry" />
        </mxCell>
        <mxCell id="9hCQHj9jtqaxEa1bAKNQ-93" value="&lt;div&gt;total_check_cnt +=&lt;/div&gt;check_edge_cnt&lt;div&gt;check_edge_cnt = 0&lt;/div&gt;" style="rounded=0;whiteSpace=wrap;html=1;" vertex="1" parent="9hCQHj9jtqaxEa1bAKNQ-111">
          <mxGeometry x="125" y="1150" width="130" height="50" as="geometry" />
        </mxCell>
        <mxCell id="9hCQHj9jtqaxEa1bAKNQ-100" value="" style="edgeStyle=orthogonalEdgeStyle;rounded=0;orthogonalLoop=1;jettySize=auto;html=1;" edge="1" parent="9hCQHj9jtqaxEa1bAKNQ-111" source="9hCQHj9jtqaxEa1bAKNQ-96" target="9hCQHj9jtqaxEa1bAKNQ-99">
          <mxGeometry relative="1" as="geometry" />
        </mxCell>
        <mxCell id="9hCQHj9jtqaxEa1bAKNQ-102" value="是" style="edgeLabel;html=1;align=center;verticalAlign=middle;resizable=0;points=[];" vertex="1" connectable="0" parent="9hCQHj9jtqaxEa1bAKNQ-100">
          <mxGeometry x="-0.2346" relative="1" as="geometry">
            <mxPoint as="offset" />
          </mxGeometry>
        </mxCell>
        <mxCell id="9hCQHj9jtqaxEa1bAKNQ-101" style="edgeStyle=orthogonalEdgeStyle;rounded=0;orthogonalLoop=1;jettySize=auto;html=1;entryX=0;entryY=0.5;entryDx=0;entryDy=0;exitX=0;exitY=0.5;exitDx=0;exitDy=0;" edge="1" parent="9hCQHj9jtqaxEa1bAKNQ-111" source="9hCQHj9jtqaxEa1bAKNQ-96" target="9hCQHj9jtqaxEa1bAKNQ-44">
          <mxGeometry relative="1" as="geometry">
            <Array as="points">
              <mxPoint x="50" y="1275" />
              <mxPoint x="50" y="295" />
            </Array>
          </mxGeometry>
        </mxCell>
        <mxCell id="9hCQHj9jtqaxEa1bAKNQ-103" value="否" style="edgeLabel;html=1;align=center;verticalAlign=middle;resizable=0;points=[];" vertex="1" connectable="0" parent="9hCQHj9jtqaxEa1bAKNQ-101">
          <mxGeometry x="-0.9259" relative="1" as="geometry">
            <mxPoint as="offset" />
          </mxGeometry>
        </mxCell>
        <mxCell id="9hCQHj9jtqaxEa1bAKNQ-96" value="total_check_cnt&lt;div&gt;是否为 0&lt;/div&gt;" style="rhombus;whiteSpace=wrap;html=1;" vertex="1" parent="9hCQHj9jtqaxEa1bAKNQ-111">
          <mxGeometry x="130" y="1230" width="120" height="90" as="geometry" />
        </mxCell>
        <mxCell id="9hCQHj9jtqaxEa1bAKNQ-99" value="x，y 此时是左上坐标&lt;div&gt;可根据 width，height&lt;/div&gt;&lt;div&gt;计算右下坐标&lt;/div&gt;" style="rounded=0;whiteSpace=wrap;html=1;" vertex="1" parent="9hCQHj9jtqaxEa1bAKNQ-111">
          <mxGeometry x="125" y="1360" width="130" height="50" as="geometry" />
        </mxCell>
      </root>
    </mxGraphModel>
  </diagram>
</mxfile>
